<svg id="findmybooklogo" xmlns="http://www.w3.org/2000/svg" viewBox="0 0 373.88 173.16"><title>findmybooklogo</title><path d="M373.88,152.81h-1.36q-185.5,0-371,0c-1.22,0-1.52-.3-1.52-1.52Q.05,106.14,0,61V59.6H373.88ZM368.39,65H7.19c-1.67,0-1.67,0-1.67,1.72q0,39.42,0,78.84c0,1.73,0,1.73,1.79,1.73H368.39Z"/><path d="M46.87,173.16v-5.34H327.08v5.34Z"/><path d="M151.66,42.1v5.3H46.91V42.1Z"/><path d="M327.11,42.1v5.3H222.35V42.1Z"/><path d="M191.54,10.4l9.37,9.37c-.22.24-.53.58-.85.9-7.8,7.8-15.62,15.58-23.38,23.42A7.73,7.73,0,0,1,172,46.62c-3,.41-6,1.16-9.11,1.79.55-2.76,1.22-5.35,1.54-8a10.82,10.82,0,0,1,3.64-6.7C174,28,179.78,22.15,185.59,16.33ZM168.8,42.61c1.31-.26,2.65-.19,3.57-.77a21.77,21.77,0,0,0,3.64-3.4,1.12,1.12,0,0,0-.09-1c-.69-.91-1.48-1.75-2.18-2.56C170.41,37,169.21,38.94,168.8,42.61Z"/><path d="M204.2,16.76l-9.53-9.5c2.2-2.2,4.42-4.48,6.72-6.68a2.23,2.23,0,0,1,3,.24q3.13,3.06,6.19,6.19a2.14,2.14,0,0,1,0,3.21C208.46,12.41,206.32,14.57,204.2,16.76Z"/><path d="M198.64.34q-2,2-4,3.92c-.14.13-.34.32-.49.3-1.51-.22-2.17,1-3,1.81q-4.17,4.14-8.28,8.34a3.49,3.49,0,0,0-.88,1.61,3.46,3.46,0,0,1-3.34,2.88A3.59,3.59,0,0,1,175,16.28a3.33,3.33,0,0,1,2.25-3.66,6.81,6.81,0,0,0,3.49-2.32C183.89,7.2,187,4.11,190.11,1a2.9,2.9,0,0,1,2.31-1c2,.06,4,0,6.07,0Z"/><path d="M219.14,120.79c0-.7,0-1.06,0-1.41,0-9.91,0-19.82,0-29.73,0-1.05.27-1.36,1.33-1.34,3.39.07,6.8-.08,10.19.06,2.85.11,5.61.7,7.67,3a8.27,8.27,0,0,1,.31,10.33c-.45.54-1.13.87-1.61,1.39-.17.19-.18.89-.06.95a7.6,7.6,0,0,1,4.37,8.38c-.56,4.38-3.12,7.39-7.56,7.86C229,120.79,224.13,120.65,219.14,120.79Zm5.28-5.13c2.69,0,5.16.11,7.62-.06a4.77,4.77,0,0,0,2.74-1.19c2.49-2.34,1.31-7-2-7.59a51.15,51.15,0,0,0-7.59-.49,1,1,0,0,0-.72.69C224.4,109.86,224.42,112.68,224.42,115.66Zm0-18.34c0,1,0,2.08,0,3.12,0,.76.27,1.08,1.05,1.06,1.4,0,2.8,0,4.19,0a11,11,0,0,0,2.68-.46,3.75,3.75,0,0,0,2.62-4.08c-.14-1.94-1.05-3.13-3.07-3.35a63.66,63.66,0,0,0-6.79-.21c-.22,0-.61.54-.64.85C224.36,95.24,224.41,96.28,224.41,97.32Z"/><path d="M166.68,101.51v19.13c-1.46,0-2.77,0-4.07,0-.2,0-.45-.35-.55-.59a2.39,2.39,0,0,1,0-.83c0-9.8,0-19.59,0-29.39,0-1.27.38-1.6,1.56-1.49,1,.09,2,0,3,.06a1.31,1.31,0,0,1,.93.75c1.64,6.05,3.23,12.12,4.83,18.19a1.72,1.72,0,0,0,.66,1c.25-.67.55-1.33.74-2Q176,97.74,178.3,89.2c.18-.68.46-.91,1.14-.88,1,0,2.08,0,3.12,0,.67,0,1,.25,1,.88,0,.28,0,.56,0,.84q0,14.45,0,28.91c0,1.7,0,1.7-1.71,1.7-3,0-3,0-3-3q0-7.26,0-14.51v-1.23l-.5-.09c-2,6.13-3.47,12.42-5.38,18.58l-.34.09-5.42-19.08Z"/><path d="M154.27,120.65c-1.49,0-2.93.08-4.35-.06-.34,0-.62-.77-1-1.29a2.81,2.81,0,0,0-.5.25,9.65,9.65,0,0,1-14.77-6,17.4,17.4,0,0,1,.69-11.08,9.14,9.14,0,0,1,7.82-5.83,9,9,0,0,1,6.1,1.42,7.44,7.44,0,0,0,1,.44c0-2.55.08-4.9,0-7.23a1.9,1.9,0,0,1,1.43-2.2c1.19-.43,2.31-1,3.59-1.59Zm-5-11.8c0-1.4,0-2.8,0-4.19a2.12,2.12,0,0,0-.29-1.12c-2-2.78-7.38-2.75-9.33,0a8.88,8.88,0,0,0-1.35,6.4c.48,3.69,1.88,6.6,6.92,6.19,2.65-.22,4.06-1.59,4.06-4.21Q149.28,110.41,149.28,108.85Z"/><path d="M65.19,101.48v5c-.4,0-.79.06-1.17.06-3.12,0-6.24,0-9.35,0-1.06,0-1.45.22-1.42,1.37.08,3.88,0,7.76,0,11.63,0,.88-.22,1.23-1.14,1.17-1.11-.07-2.24,0-3.35-.05-.28,0-.54-.46-.77-.75-.08-.1,0-.31,0-.47,0-9.92,0-19.83,0-29.75,0-1.06.29-1.35,1.35-1.34q9.53.07,19.07,0c1.18,0,1.46.42,1.39,1.45-.06.88,0,1.76,0,2.64s-.32,1.16-1.21,1.15c-4.6,0-9.2,0-13.79,0H53.27c0,.93,0,1.79,0,2.65,0,1.4,0,2.8,0,4.2,0,.84.29,1.12,1.12,1.11,3.16,0,6.32,0,9.48,0Z"/><path d="M326.43,120.65c-1.72,0-3.31.05-4.89,0a1.59,1.59,0,0,1-1-.82c-1.86-3.48-3.67-7-5.49-10.49-.27-.52-.56-1-1-1.75-1.21,1.16-2.35,2.19-3.4,3.3-.22.23-.16.76-.16,1.15,0,2.52,0,5,0,7.56,0,.83-.23,1.15-1.09,1.1-1.08-.06-2.16,0-3.24,0-.67,0-.94-.22-.91-.9,0-.88,0-1.76,0-2.64,0-8.68,0-17.35,0-26a1.56,1.56,0,0,1,1.07-1.72c1.35-.55,2.65-1.21,4.14-1.9v17.61a11.23,11.23,0,0,0,1.17-.85c2.17-2.13,4.31-4.29,6.51-6.38a2.62,2.62,0,0,1,1.55-.65c1.59-.08,3.19,0,5.15,0-.66.65-1.11,1.11-1.57,1.56-1.56,1.49-3.1,3-4.69,4.46a1.13,1.13,0,0,0-.26,1.63c2.63,5,5.2,10.05,7.79,15.08A7.9,7.9,0,0,1,326.43,120.65Z"/><path d="M269.57,108.39c0,4.34-.88,7.76-3.84,10.26-3.5,3-7.57,3.14-11.7,1.77-3.74-1.24-5.79-4.16-6.53-7.9a15.4,15.4,0,0,1,.81-9.72A10,10,0,0,1,257,96.69c4-.37,7.49.64,10.05,3.89A11.93,11.93,0,0,1,269.57,108.39Zm-5.17.55a24.93,24.93,0,0,0-.43-3.18,5.43,5.43,0,0,0-4.87-4.27c-2.83-.26-4.84.79-6,3.35a10.16,10.16,0,0,0-.19,7.63A5,5,0,0,0,257,116.1c2.24.36,4.4.06,5.92-1.94A8.16,8.16,0,0,0,264.4,108.95Z"/><path d="M298.08,108.8c.08,3.52-.68,6.62-3,9.09-3.3,3.47-7.46,3.92-11.81,2.75-4-1.07-6.31-4-7.17-7.9a15.66,15.66,0,0,1,.62-9.58,10,10,0,0,1,8.83-6.47c3.94-.39,7.35.59,9.94,3.68A12,12,0,0,1,298.08,108.8Zm-5,.23-.2-.1a30.76,30.76,0,0,0-.4-3.06,5.52,5.52,0,0,0-4.68-4.34,5.63,5.63,0,0,0-6,2.9,10.79,10.79,0,0,0-.72,7,5.86,5.86,0,0,0,4.47,4.74c2.88.46,5.15-.38,6.32-2.71A23.64,23.64,0,0,0,293.13,109Z"/><path d="M121,120.65c0-4.12,0-8.07,0-12a17.05,17.05,0,0,0-.35-3.67c-.59-2.53-2.73-3.78-5.63-3.46a4.66,4.66,0,0,0-4.33,4.84c0,4.32-.07,8.63,0,12.95,0,1.13-.32,1.48-1.41,1.38a25.66,25.66,0,0,0-3,0c-.62,0-.84-.22-.84-.84q0-10.91,0-21.82c0-.63.24-.85.85-.84,1.24,0,2.47,0,3.84,0l.14,2.37a8.9,8.9,0,0,0,.93-.6,9.45,9.45,0,0,1,11.59-.72,7.41,7.41,0,0,1,3.2,6.24c.16,5.11.06,10.23.08,15.34,0,.6-.18.88-.82.87C123.84,120.63,122.49,120.65,121,120.65Z"/><path d="M189.9,97.16c1.61,0,3.05-.06,4.48,0a1.51,1.51,0,0,1,1,.88c1.82,4.75,3.58,9.53,5.36,14.29.12.32.28.62.57,1.28l6.15-16.44h5.23c-.76,2-1.48,4-2.23,6q-4.87,12.76-9.74,25.53a1.13,1.13,0,0,1-1.28.9c-1.39-.05-2.79,0-4.34,0,1-2.59,1.91-5.08,2.92-7.54a4.15,4.15,0,0,0,.06-3.32c-2.67-6.89-5.27-13.82-7.89-20.73C190.11,97.77,190,97.55,189.9,97.16Z"/><path d="M90,97.26v18.83h6.46c0,1.41,0,2.72-.05,4,0,.21-.69.53-1.07.53-4.56,0-9.12,0-13.67,0-1.07,0-2.6.32-3.09-.23s-.24-2.1-.3-3.2c0-.31,0-.62,0-1.08,1.92,0,3.75,0,5.57,0,.65,0,1.07-.1,1.07-.89,0-4.36,0-8.72,0-13.07a1.94,1.94,0,0,0-.15-.45H78.36V97.26Z"/><path d="M87.33,93.58c-1.52.25-3-1.34-3-3a3.1,3.1,0,0,1,3.15-3.06,3,3,0,0,1,3,3A3,3,0,0,1,87.33,93.58Z"/></svg>