<svg viewBox="0 0 415 93" fill="none" xmlns="http://www.w3.org/2000/svg">
<path d="M415 93H413.49C276.223 93 138.955 93 1.68717 93C0.332994 93 0 92.7007 0 91.4834C0.0369994 61.4512 0.0369994 31.4224 0 1.39685V0H415V93ZM408.906 5.38784H7.98077C6.1271 5.38784 6.1271 5.38784 6.1271 7.10396C6.1271 33.3248 6.1271 59.5455 6.1271 85.7663C6.1271 87.4924 6.1271 87.4924 8.11397 87.4924H408.906V5.38784Z" fill="black"/>
<path fill-rule="evenodd" clip-rule="evenodd" d="M59.7501 26.2624C61.0835 24.9824 62.4168 23.6757 63.7501 22.3424L63.6001 22.0024C62.9049 22.0024 62.2175 22.0091 61.5354 22.0158C60.1866 22.0291 58.8584 22.0422 57.5301 22.0024C57.0947 21.9848 56.6609 22.0655 56.261 22.2387C55.861 22.4118 55.5053 22.6728 55.2201 23.0024C52.1101 26.1124 49.0001 29.2024 45.8501 32.3024C44.9596 33.4233 43.7384 34.2351 42.3601 34.6224C41.6133 34.8686 40.9777 35.3711 40.5659 36.041C40.1541 36.7109 39.9927 37.5049 40.1101 38.2824C40.2696 39.1247 40.7253 39.8822 41.3948 40.4178C42.0643 40.9534 42.9033 41.2317 43.7601 41.2024C44.5649 41.1858 45.3388 40.8891 45.9484 40.3635C46.5581 39.8378 46.9654 39.116 47.1001 38.3224C47.2446 37.7168 47.5484 37.1609 47.9801 36.7124C50.7201 33.9124 53.4801 31.1324 56.2601 28.3724C56.4266 28.2099 56.5863 28.0308 56.7474 27.8503C57.3892 27.1308 58.0531 26.3865 59.2601 26.5624C59.4063 26.5819 59.6001 26.4018 59.7394 26.2723L59.7501 26.2624ZM69.31 38.7625L59.78 29.2625C60.3773 28.6652 60.9761 28.062 61.5776 27.4561L61.5777 27.456C63.1915 25.8303 64.8245 24.1852 66.5 22.5825C66.9397 22.2407 67.4914 22.0757 68.0466 22.1201C68.6018 22.1646 69.1203 22.4151 69.5 22.8225C71.5867 24.8625 73.65 26.9259 75.69 29.0125C75.9177 29.2134 76.1001 29.4603 76.225 29.7371C76.35 30.0138 76.4146 30.3139 76.4146 30.6175C76.4146 30.9211 76.35 31.2213 76.225 31.498C76.1001 31.7747 75.9177 32.0217 75.69 32.2225C74.63 33.3175 73.5651 34.405 72.5001 35.4925L72.4991 35.4935C71.4344 36.5807 70.3697 37.6679 69.31 38.7625ZM56.65 32.4023L66.02 41.7723L65.9834 41.8123L65.9832 41.8125C65.7662 42.0494 65.4725 42.3698 65.17 42.6723C63.2214 44.6209 61.2716 46.5683 59.3217 48.5156L59.3173 48.5201C53.4636 54.3662 47.6099 60.2124 41.79 66.0923C40.5785 67.4629 38.9202 68.3593 37.11 68.6223C35.0017 68.9105 32.8933 69.3666 30.7468 69.8309C29.839 70.0272 28.9244 70.2251 28 70.4123C28.1659 69.5798 28.3427 68.7627 28.5176 67.9548C28.9224 66.0844 29.3165 64.263 29.54 62.4123C29.9001 59.8113 31.1939 57.43 33.18 55.7123C38.0934 50.9812 42.9038 46.154 47.7136 41.3274L47.7138 41.3273C48.7089 40.3286 49.704 39.3301 50.7 38.3323L56.65 32.4023ZM33.91 64.6123C34.3332 64.5284 34.7595 64.4788 35.1738 64.4306C36.0419 64.3297 36.8572 64.235 37.48 63.8423C38.8194 62.852 40.0407 61.7112 41.12 60.4423C41.1838 60.2802 41.209 60.1053 41.1933 59.9317C41.1777 59.7581 41.1218 59.5905 41.03 59.4423C40.5341 58.7883 39.9865 58.1704 39.4578 57.5738C39.2509 57.3404 39.0469 57.1102 38.85 56.8823C35.52 59.0023 34.32 60.9423 33.91 64.6123Z" fill="black"/>
<path fill-rule="evenodd" clip-rule="evenodd" d="M213.125 60.6615H213.125H213.125H213.126H213.126H213.127H213.127L213.127 60.6615C213.52 60.6557 213.916 60.65 214.316 60.65L214.326 27.48C214.015 27.6231 213.714 27.7651 213.419 27.9042L213.419 27.9042L213.419 27.9043L213.419 27.9043L213.419 27.9044L213.418 27.9044L213.418 27.9045L213.418 27.9045L213.418 27.9046L213.418 27.9046C212.497 28.3386 211.637 28.7444 210.736 29.07C210.26 29.1824 209.846 29.4738 209.58 29.8835C209.314 30.2932 209.215 30.7897 209.306 31.27C209.358 32.8085 209.341 34.3558 209.324 35.9637C209.315 36.7907 209.306 37.6338 209.306 38.5C208.962 38.378 208.628 38.231 208.306 38.06C206.508 36.8716 204.343 36.3677 202.206 36.64C200.485 36.7741 198.837 37.3929 197.453 38.4246C196.069 39.4564 195.006 40.8589 194.386 42.47C192.952 45.9889 192.71 49.8804 193.696 53.55C194.028 55.0856 194.729 56.5168 195.74 57.7195C196.751 58.9222 198.04 59.8599 199.496 60.4512C200.951 61.0425 202.529 61.2695 204.092 61.1124C205.656 60.9553 207.157 60.419 208.466 59.55C208.624 59.4502 208.791 59.3665 208.966 59.3C209.09 59.4696 209.203 59.6659 209.311 59.8533C209.535 60.2404 209.737 60.59 209.966 60.59C211.004 60.6924 212.053 60.6771 213.125 60.6615ZM209.316 44.66V48.85H209.326V51.92C209.326 54.54 207.916 55.91 205.266 56.13C200.226 56.54 198.826 53.63 198.346 49.94C197.965 47.7126 198.448 45.4238 199.696 43.54C201.646 40.79 207.026 40.76 209.026 43.54C209.224 43.8792 209.325 44.267 209.316 44.66ZM279.186 60.79V59.38V29.65C279.186 28.6 279.456 28.29 280.516 28.31C281.978 28.3402 283.444 28.3295 284.91 28.3187C286.844 28.3046 288.778 28.2904 290.706 28.37C293.556 28.48 296.316 29.07 298.376 31.37C299.593 32.8007 300.287 34.6031 300.343 36.4806C300.399 38.3582 299.815 40.1989 298.686 41.7C298.448 41.9859 298.145 42.2129 297.841 42.4405C297.572 42.6427 297.302 42.8453 297.076 43.09C296.906 43.28 296.896 43.98 297.016 44.04C298.583 44.7384 299.868 45.9466 300.662 47.4681C301.455 48.9897 301.71 50.735 301.386 52.42C300.826 56.8 298.266 59.81 293.826 60.28C290.478 60.6372 287.087 60.6756 283.641 60.7146H283.641C282.166 60.7313 280.681 60.7481 279.186 60.79ZM284.466 55.66C285.238 55.66 285.992 55.6691 286.732 55.678C288.573 55.7001 290.332 55.7212 292.086 55.6C293.103 55.507 294.063 55.0898 294.826 54.41C297.316 52.07 296.136 47.41 292.826 46.82C290.311 46.4686 287.774 46.3048 285.236 46.33C285.066 46.372 284.91 46.4578 284.784 46.5789C284.657 46.7 284.565 46.8521 284.516 47.02C284.459 49.339 284.461 51.6447 284.464 54.0351V54.0367C284.465 54.5731 284.466 55.1139 284.466 55.66ZM284.466 37.32V40.44C284.466 41.2 284.736 41.52 285.516 41.5H289.706C290.615 41.4581 291.515 41.3036 292.386 41.04C293.235 40.7802 293.964 40.2276 294.444 39.4804C294.924 38.7333 295.123 37.8402 295.006 36.96C294.866 35.02 293.956 33.83 291.936 33.61C289.678 33.4192 287.411 33.3491 285.146 33.4C284.926 33.4 284.536 33.94 284.506 34.25C284.431 34.9918 284.44 35.7616 284.45 36.5385C284.453 36.7985 284.456 37.0592 284.456 37.32H284.466ZM226.726 41.5099V60.6399H222.656C222.456 60.6399 222.206 60.2899 222.106 60.0499C222.057 59.7754 222.057 59.4945 222.106 59.2199V29.8299C222.106 28.5599 222.486 28.2299 223.666 28.3399C224.211 28.389 224.757 28.3846 225.302 28.3801C225.757 28.3764 226.211 28.3727 226.666 28.3999C226.869 28.4423 227.059 28.5323 227.221 28.6627C227.383 28.7932 227.511 28.9601 227.596 29.1499C228.984 34.2734 230.337 39.4112 231.691 44.5512L231.703 44.5956C231.944 45.5104 232.185 46.4251 232.426 47.3399C232.519 47.7416 232.753 48.0965 233.086 48.3399C233.166 48.125 233.251 47.9111 233.336 47.6975L233.337 47.697L233.337 47.6963L233.337 47.6961C233.517 47.2445 233.697 46.7945 233.826 46.3399C235.306 40.6066 236.812 34.8933 238.346 29.1999C238.526 28.5199 238.806 28.2899 239.486 28.3199H242.606C243.276 28.3199 243.606 28.5699 243.606 29.1999V30.0399V58.9499C243.606 60.6499 243.606 60.6499 241.896 60.6499C240.396 60.6499 239.646 60.6499 239.271 60.2749C238.896 59.8999 238.896 59.1499 238.896 57.6499V43.1399V41.9099L238.396 41.8199C237.302 45.1718 236.367 48.5715 235.432 51.9717C234.657 54.7898 233.881 57.6082 233.016 60.3999L232.676 60.4899L227.256 41.4099L226.726 41.5099ZM125.236 41.48V46.48C125.033 46.48 124.833 46.4954 124.636 46.5106C124.443 46.5254 124.253 46.54 124.066 46.54H114.716C113.656 46.54 113.266 46.76 113.296 47.91C113.349 50.4974 113.331 53.0848 113.313 55.6692C113.304 56.9604 113.296 58.2507 113.296 59.54C113.296 60.42 113.076 60.77 112.156 60.71C111.558 60.6723 110.955 60.6752 110.352 60.6781H110.352H110.352H110.352H110.351H110.351H110.351H110.351C109.834 60.6806 109.318 60.6831 108.806 60.66C108.584 60.66 108.375 60.372 108.183 60.1081L108.183 60.1081C108.133 60.0385 108.084 59.9705 108.036 59.91C107.982 59.8436 108 59.7286 108.018 59.612C108.027 59.553 108.036 59.4937 108.036 59.44V29.69C108.036 28.63 108.326 28.34 109.386 28.35C115.739 28.3966 122.096 28.3966 128.456 28.35C129.636 28.35 129.916 28.77 129.846 29.8C129.806 30.3867 129.819 30.9733 129.832 31.56C129.839 31.8533 129.846 32.1466 129.846 32.44C129.846 33.32 129.526 33.6 128.636 33.59H114.846H113.316V36.24V40.44C113.316 41.28 113.606 41.56 114.436 41.55H123.916L125.236 41.48ZM384.765 60.6614C385.323 60.6558 385.892 60.65 386.476 60.65C386.379 60.4286 386.272 60.2117 386.156 60C385.48 58.6886 384.807 57.3759 384.133 56.063L384.132 56.0623L384.132 56.0617L384.131 56.0592L384.129 56.0567L384.123 56.0435L384.122 56.0422L384.121 56.0414L384.121 56.0408L384.121 56.0405L384.121 56.0402C382.214 52.325 380.306 48.6089 378.366 44.92C378.271 44.7978 378.202 44.6575 378.163 44.5076C378.125 44.3577 378.118 44.2014 378.142 44.0486C378.166 43.8958 378.222 43.7496 378.305 43.6191C378.388 43.4886 378.497 43.3766 378.626 43.29C379.761 42.2471 380.872 41.1787 381.982 40.1103C382.426 39.683 382.87 39.2557 383.316 38.83C383.546 38.6051 383.773 38.3777 384.025 38.1253L384.028 38.123C384.28 37.8711 384.556 37.5942 384.886 37.27C384.203 37.27 383.564 37.2603 382.953 37.2511C381.812 37.2337 380.772 37.2179 379.736 37.27C379.162 37.3106 378.617 37.539 378.186 37.92C376.68 39.3504 375.202 40.8136 373.724 42.2775C373.042 42.9526 372.361 43.6278 371.676 44.3C371.304 44.6082 370.913 44.8921 370.506 45.15V27.54C370.042 27.7547 369.597 27.9664 369.163 28.1728L369.163 28.173L369.162 28.1732L369.162 28.1735C368.201 28.6304 367.295 29.0613 366.366 29.44C366.012 29.5525 365.71 29.7875 365.513 30.1027C365.317 30.418 365.24 30.7929 365.296 31.16V57.16V59.8C365.266 60.48 365.536 60.7 366.206 60.7C366.566 60.7 366.926 60.6934 367.286 60.6867C368.006 60.6734 368.726 60.66 369.446 60.7C370.306 60.75 370.536 60.43 370.536 59.6V52.04C370.536 51.9731 370.534 51.9019 370.532 51.8289C370.523 51.4768 370.513 51.0805 370.696 50.89C371.452 50.0901 372.256 49.3318 373.098 48.5364L373.098 48.5363C373.425 48.2279 373.758 47.9141 374.096 47.59C374.171 47.7177 374.241 47.8375 374.308 47.951L374.308 47.9519L374.31 47.9541L374.311 47.9559L374.311 47.9565C374.635 48.5072 374.872 48.91 375.096 49.34C375.579 50.2668 376.062 51.1957 376.545 52.1253C377.88 54.6967 379.22 57.2741 380.586 59.83C380.686 60.0292 380.826 60.205 380.999 60.3463C381.171 60.4876 381.371 60.591 381.586 60.65C382.629 60.6831 383.678 60.6725 384.765 60.6614ZM329.616 48.39C329.616 52.73 328.736 56.15 325.776 58.65C322.276 61.65 318.206 61.79 314.076 60.42C310.336 59.18 308.286 56.26 307.546 52.52C306.755 49.2778 307.04 45.8667 308.356 42.8C309.084 41.0681 310.285 39.5763 311.822 38.4957C313.359 37.415 315.17 36.7893 317.046 36.69C321.046 36.32 324.536 37.33 327.096 40.58C328.833 42.8034 329.726 45.5706 329.616 48.39ZM324.446 48.94C324.371 47.8719 324.227 46.8097 324.016 45.76C323.77 44.6196 323.164 43.5885 322.287 42.8194C321.41 42.0504 320.308 41.5842 319.146 41.49C316.316 41.23 314.306 42.28 313.146 44.84C312.093 47.262 312.025 49.9986 312.956 52.47C313.211 53.4069 313.734 54.2491 314.46 54.8937C315.187 55.5383 316.085 55.9575 317.046 56.1C319.286 56.46 321.446 56.16 322.966 54.16C324.038 52.6425 324.56 50.8045 324.446 48.95V48.94ZM355.126 57.89C357.446 55.42 358.206 52.32 358.126 48.8C358.363 45.7631 357.438 42.7494 355.536 40.37C352.946 37.28 349.536 36.3 345.596 36.69C343.654 36.7934 341.785 37.4604 340.217 38.6095C338.648 39.7586 337.449 41.3399 336.766 43.16C335.561 46.2097 335.344 49.5605 336.146 52.74C337.006 56.64 339.316 59.57 343.316 60.64C347.666 61.81 351.826 61.36 355.126 57.89ZM352.926 48.93L353.126 49.03L353.176 49C352.903 50.5244 352.481 52.0182 351.916 53.46C350.746 55.79 348.476 56.63 345.596 56.17C344.465 55.911 343.437 55.3223 342.641 54.4785C341.845 53.6347 341.318 52.5738 341.126 51.43C340.577 49.0818 340.83 46.6173 341.846 44.43C342.407 43.3709 343.291 42.5185 344.37 41.9969C345.45 41.4753 346.667 41.3118 347.846 41.53C348.979 41.6797 350.038 42.1776 350.876 42.955C351.715 43.7325 352.291 44.751 352.526 45.87C352.71 46.8827 352.844 47.904 352.926 48.93ZM181.046 60.65V48.65C181.062 47.4176 180.945 46.1871 180.696 44.98C180.106 42.45 177.966 41.2 175.066 41.52C173.856 41.6048 172.727 42.1578 171.919 43.0615C171.11 43.9652 170.686 45.1484 170.736 46.36C170.736 47.8003 170.728 49.2396 170.72 50.6785V50.6785V50.6786V50.6787C170.704 53.5553 170.689 56.4304 170.736 59.31C170.736 60.44 170.416 60.79 169.326 60.69C168.326 60.6315 167.325 60.6315 166.326 60.69C165.706 60.69 165.486 60.47 165.486 59.85V38.03C165.486 37.4 165.726 37.18 166.336 37.19H170.176L170.316 39.56C170.638 39.3795 170.948 39.1791 171.246 38.96C172.822 37.5672 174.818 36.7402 176.917 36.6097C179.016 36.4793 181.099 37.053 182.836 38.24C183.843 38.935 184.662 39.8686 185.22 40.9575C185.779 42.0463 186.059 43.2565 186.036 44.48C186.145 47.9764 186.133 51.4775 186.121 54.9768V54.977V54.9771V54.9772C186.115 56.5921 186.109 58.2065 186.116 59.82C186.116 60.42 185.936 60.7 185.296 60.69C184.171 60.6421 183.085 60.6452 181.936 60.6483L181.932 60.6484H181.932C181.641 60.6492 181.346 60.65 181.046 60.65ZM251.543 37.1461C251.026 37.153 250.496 37.16 249.946 37.16C250.012 37.4201 250.083 37.6046 250.147 37.7699C250.179 37.8524 250.209 37.9301 250.236 38.01C250.875 39.6971 251.514 41.3855 252.152 43.0741L252.153 43.0769L252.155 43.0818C254.131 48.3068 256.108 53.5348 258.126 58.74C258.345 59.2677 258.452 59.8349 258.442 60.4062C258.432 60.9775 258.304 61.5405 258.066 62.06C257.378 63.7357 256.736 65.4255 256.081 67.1512L256.08 67.1532L256.079 67.1542L256.079 67.1544L256.079 67.1545C255.773 67.9611 255.464 68.7754 255.146 69.6C255.674 69.6 256.186 69.5942 256.685 69.5885C257.649 69.5775 258.57 69.567 259.486 69.6C259.774 69.6441 260.068 69.5751 260.307 69.4074C260.545 69.2396 260.71 68.9862 260.766 68.7C264.012 60.1866 267.259 51.6766 270.506 43.17C270.827 42.3128 271.143 41.4556 271.459 40.5983C271.88 39.4556 272.301 38.3128 272.736 37.17H267.506L261.356 53.61C261.232 53.328 261.131 53.1117 261.048 52.9315C260.936 52.69 260.854 52.5132 260.786 52.33C260.29 51.0052 259.796 49.6789 259.302 48.3521C258.021 44.9116 256.739 41.468 255.426 38.04C255.337 37.8266 255.201 37.6363 255.028 37.4837C254.854 37.3312 254.648 37.2204 254.426 37.16C253.484 37.1205 252.539 37.133 251.543 37.1461ZM150.046 37.26V56.09H156.506V56.0903C156.506 57.5002 156.506 58.8101 156.456 60.09C156.456 60.3 155.766 60.62 155.386 60.62H141.716C141.432 60.62 141.116 60.6425 140.795 60.6653C139.907 60.7285 138.986 60.7942 138.626 60.39C138.28 60.0021 138.302 59.1167 138.325 58.2426V58.2426C138.334 57.8774 138.343 57.5142 138.326 57.19V56.11H143.896C144.546 56.11 144.966 56.01 144.966 55.22V42.15C144.934 41.9944 144.884 41.8433 144.816 41.7H138.406V37.26H150.046ZM144.376 30.5799C144.376 32.2399 145.856 33.8299 147.376 33.5799C147.787 33.6006 148.199 33.5363 148.584 33.3911C148.97 33.2458 149.321 33.0227 149.617 32.7356C149.912 32.4485 150.146 32.1036 150.302 31.7224C150.458 31.3412 150.534 30.9319 150.526 30.5199C150.526 29.7243 150.21 28.9612 149.647 28.3986C149.084 27.836 148.321 27.5199 147.526 27.5199C147.118 27.5133 146.713 27.5873 146.333 27.7376C145.954 27.888 145.608 28.1117 145.315 28.396C145.023 28.6803 144.789 29.0195 144.628 29.3943C144.467 29.7691 144.381 30.172 144.376 30.5799Z" fill="black"/>
</svg>
