<svg width="24" height="24" viewBox="0 0 24 24" fill="none" xmlns="http://www.w3.org/2000/svg">
<path fill-rule="evenodd" clip-rule="evenodd" d="M16 9C16 12.3137 12.866 15 9 15C8.69062 15 8.38592 14.9828 8.08715 14.9494C7.4983 14.8837 6.93244 14.7553 6.399 14.5721L3.79062 16.4353C3.45968 16.6717 3 16.4351 3 16.0284V12.0922C2.36518 11.1892 2 10.1311 2 9C2 5.68629 5.13401 3 9 3C12.4891 3 15.3819 5.18801 15.9129 8.05056C15.9151 8.06245 15.9172 8.07435 15.9193 8.08626C15.9725 8.38419 16 8.68934 16 9ZM17 9C17 13.0051 13.2681 16 9 16C8.79494 16 8.59155 15.9933 8.39011 15.98C9.34443 18.3208 11.9434 20 15 20C15.9191 20 16.7969 19.8482 17.601 19.5721L20.2094 21.4353C20.5403 21.6717 21 21.4351 21 21.0284V17.0922C21.6348 16.1892 22 15.1311 22 14C22 11.2676 19.8692 8.96185 16.9541 8.23691C16.9844 8.4867 17 8.74124 17 9Z" fill="black"/>
</svg>
